<svg width="34" height="34" viewBox="0 0 34 34" fill="none" xmlns="http://www.w3.org/2000/svg">
<g clip-path="url(#clip0_20_364)">
<path d="M15.9375 15.9375H18.0625C18.3443 15.9375 18.6145 15.8256 18.8138 15.6263C19.0131 15.427 19.125 15.1568 19.125 14.875V12.75C19.125 12.4682 19.0131 12.198 18.8138 11.9987C18.6145 11.7994 18.3443 11.6875 18.0625 11.6875H15.9375C15.6557 11.6875 15.3855 11.7994 15.1862 11.9987C14.9869 12.198 14.875 12.4682 14.875 12.75V14.875C14.875 15.1568 14.9869 15.427 15.1862 15.6263C15.3855 15.8256 15.6557 15.9375 15.9375 15.9375ZM15.9375 12.75H18.0625V14.875H15.9375V12.75ZM21.25 15.9375H23.375C23.6568 15.9375 23.927 15.8256 24.1263 15.6263C24.3256 15.427 24.4375 15.1568 24.4375 14.875V12.75C24.4375 12.4682 24.3256 12.198 24.1263 11.9987C23.927 11.7994 23.6568 11.6875 23.375 11.6875H21.25C20.9682 11.6875 20.698 11.7994 20.4987 11.9987C20.2994 12.198 20.1875 12.4682 20.1875 12.75V14.875C20.1875 15.1568 20.2994 15.427 20.4987 15.6263C20.698 15.8256 20.9682 15.9375 21.25 15.9375ZM21.25 12.75H23.375V14.875H21.25V12.75ZM26.5625 15.9375H28.6875C28.9693 15.9375 29.2395 15.8256 29.4388 15.6263C29.6381 15.427 29.75 15.1568 29.75 14.875V12.75C29.75 12.4682 29.6381 12.198 29.4388 11.9987C29.2395 11.7994 28.9693 11.6875 28.6875 11.6875H26.5625C26.2807 11.6875 26.0105 11.7994 25.8112 11.9987C25.6119 12.198 25.5 12.4682 25.5 12.75V14.875C25.5 15.1568 25.6119 15.427 25.8112 15.6263C26.0105 15.8256 26.2807 15.9375 26.5625 15.9375ZM26.5625 12.75H28.6875V14.875H26.5625V12.75ZM5.3125 21.25H7.4375C7.71929 21.25 7.98954 21.1381 8.1888 20.9388C8.38806 20.7395 8.5 20.4693 8.5 20.1875V18.0625C8.5 17.7807 8.38806 17.5105 8.1888 17.3112C7.98954 17.1119 7.71929 17 7.4375 17H5.3125C5.03071 17 4.76046 17.1119 4.5612 17.3112C4.36194 17.5105 4.25 17.7807 4.25 18.0625V20.1875C4.25 20.4693 4.36194 20.7395 4.5612 20.9388C4.76046 21.1381 5.03071 21.25 5.3125 21.25ZM5.3125 18.0625H7.4375V20.1875H5.3125V18.0625ZM10.625 21.25H12.75C13.0318 21.25 13.302 21.1381 13.5013 20.9388C13.7006 20.7395 13.8125 20.4693 13.8125 20.1875V18.0625C13.8125 17.7807 13.7006 17.5105 13.5013 17.3112C13.302 17.1119 13.0318 17 12.75 17H10.625C10.3432 17 10.073 17.1119 9.8737 17.3112C9.67444 17.5105 9.5625 17.7807 9.5625 18.0625V20.1875C9.5625 20.4693 9.67444 20.7395 9.8737 20.9388C10.073 21.1381 10.3432 21.25 10.625 21.25ZM10.625 18.0625H12.75V20.1875H10.625V18.0625ZM15.9375 21.25H18.0625C18.3443 21.25 18.6145 21.1381 18.8138 20.9388C19.0131 20.7395 19.125 20.4693 19.125 20.1875V18.0625C19.125 17.7807 19.0131 17.5105 18.8138 17.3112C18.6145 17.1119 18.3443 17 18.0625 17H15.9375C15.6557 17 15.3855 17.1119 15.1862 17.3112C14.9869 17.5105 14.875 17.7807 14.875 18.0625V20.1875C14.875 20.4693 14.9869 20.7395 15.1862 20.9388C15.3855 21.1381 15.6557 21.25 15.9375 21.25ZM15.9375 18.0625H18.0625V20.1875H15.9375V18.0625ZM21.25 21.25H23.375C23.6568 21.25 23.927 21.1381 24.1263 20.9388C24.3256 20.7395 24.4375 20.4693 24.4375 20.1875V18.0625C24.4375 17.7807 24.3256 17.5105 24.1263 17.3112C23.927 17.1119 23.6568 17 23.375 17H21.25C20.9682 17 20.698 17.1119 20.4987 17.3112C20.2994 17.5105 20.1875 17.7807 20.1875 18.0625V20.1875C20.1875 20.4693 20.2994 20.7395 20.4987 20.9388C20.698 21.1381 20.9682 21.25 21.25 21.25ZM21.25 18.0625H23.375V20.1875H21.25V18.0625ZM26.5625 21.25H28.6875C28.9693 21.25 29.2395 21.1381 29.4388 20.9388C29.6381 20.7395 29.75 20.4693 29.75 20.1875V18.0625C29.75 17.7807 29.6381 17.5105 29.4388 17.3112C29.2395 17.1119 28.9693 17 28.6875 17H26.5625C26.2807 17 26.0105 17.1119 25.8112 17.3112C25.6119 17.5105 25.5 17.7807 25.5 18.0625V20.1875C25.5 20.4693 25.6119 20.7395 25.8112 20.9388C26.0105 21.1381 26.2807 21.25 26.5625 21.25ZM26.5625 18.0625H28.6875V20.1875H26.5625V18.0625ZM5.3125 26.5625H7.4375C7.71929 26.5625 7.98954 26.4506 8.1888 26.2513C8.38806 26.052 8.5 25.7818 8.5 25.5V23.375C8.5 23.0932 8.38806 22.823 8.1888 22.6237C7.98954 22.4244 7.71929 22.3125 7.4375 22.3125H5.3125C5.03071 22.3125 4.76046 22.4244 4.5612 22.6237C4.36194 22.823 4.25 23.0932 4.25 23.375V25.5C4.25 25.7818 4.36194 26.052 4.5612 26.2513C4.76046 26.4506 5.03071 26.5625 5.3125 26.5625ZM5.3125 23.375H7.4375V25.5H5.3125V23.375ZM10.625 26.5625H12.75C13.0318 26.5625 13.302 26.4506 13.5013 26.2513C13.7006 26.052 13.8125 25.7818 13.8125 25.5V23.375C13.8125 23.0932 13.7006 22.823 13.5013 22.6237C13.302 22.4244 13.0318 22.3125 12.75 22.3125H10.625C10.3432 22.3125 10.073 22.4244 9.8737 22.6237C9.67444 22.823 9.5625 23.0932 9.5625 23.375V25.5C9.5625 25.7818 9.67444 26.052 9.8737 26.2513C10.073 26.4506 10.3432 26.5625 10.625 26.5625ZM10.625 23.375H12.75V25.5H10.625V23.375ZM15.9375 26.5625H18.0625C18.3443 26.5625 18.6145 26.4506 18.8138 26.2513C19.0131 26.052 19.125 25.7818 19.125 25.5V23.375C19.125 23.0932 19.0131 22.823 18.8138 22.6237C18.6145 22.4244 18.3443 22.3125 18.0625 22.3125H15.9375C15.6557 22.3125 15.3855 22.4244 15.1862 22.6237C14.9869 22.823 14.875 23.0932 14.875 23.375V25.5C14.875 25.7818 14.9869 26.052 15.1862 26.2513C15.3855 26.4506 15.6557 26.5625 15.9375 26.5625ZM15.9375 23.375H18.0625V25.5H15.9375V23.375ZM21.25 26.5625H23.375C23.6568 26.5625 23.927 26.4506 24.1263 26.2513C24.3256 26.052 24.4375 25.7818 24.4375 25.5V23.375C24.4375 23.0932 24.3256 22.823 24.1263 22.6237C23.927 22.4244 23.6568 22.3125 23.375 22.3125H21.25C20.9682 22.3125 20.698 22.4244 20.4987 22.6237C20.2994 22.823 20.1875 23.0932 20.1875 23.375V25.5C20.1875 25.7818 20.2994 26.052 20.4987 26.2513C20.698 26.4506 20.9682 26.5625 21.25 26.5625ZM21.25 23.375H23.375V25.5H21.25V23.375ZM26.5625 26.5625H28.6875C28.9693 26.5625 29.2395 26.4506 29.4388 26.2513C29.6381 26.052 29.75 25.7818 29.75 25.5V23.375C29.75 23.0932 29.6381 22.823 29.4388 22.6237C29.2395 22.4244 28.9693 22.3125 28.6875 22.3125H26.5625C26.2807 22.3125 26.0105 22.4244 25.8112 22.6237C25.6119 22.823 25.5 23.0932 25.5 23.375V25.5C25.5 25.7818 25.6119 26.052 25.8112 26.2513C26.0105 26.4506 26.2807 26.5625 26.5625 26.5625ZM26.5625 23.375H28.6875V25.5H26.5625V23.375ZM5.3125 31.875H7.4375C7.71929 31.875 7.98954 31.7631 8.1888 31.5638C8.38806 31.3645 8.5 31.0943 8.5 30.8125V28.6875C8.5 28.4057 8.38806 28.1355 8.1888 27.9362C7.98954 27.7369 7.71929 27.625 7.4375 27.625H5.3125C5.03071 27.625 4.76046 27.7369 4.5612 27.9362C4.36194 28.1355 4.25 28.4057 4.25 28.6875V30.8125C4.25 31.0943 4.36194 31.3645 4.5612 31.5638C4.76046 31.7631 5.03071 31.875 5.3125 31.875ZM5.3125 28.6875H7.4375V30.8125H5.3125V28.6875ZM10.625 31.875H12.75C13.0318 31.875 13.302 31.7631 13.5013 31.5638C13.7006 31.3645 13.8125 31.0943 13.8125 30.8125V28.6875C13.8125 28.4057 13.7006 28.1355 13.5013 27.9362C13.302 27.7369 13.0318 27.625 12.75 27.625H10.625C10.3432 27.625 10.073 27.7369 9.8737 27.9362C9.67444 28.1355 9.5625 28.4057 9.5625 28.6875V30.8125C9.5625 31.0943 9.67444 31.3645 9.8737 31.5638C10.073 31.7631 10.3432 31.875 10.625 31.875ZM10.625 28.6875H12.75V30.8125H10.625V28.6875ZM15.9375 31.875H18.0625C18.3443 31.875 18.6145 31.7631 18.8138 31.5638C19.0131 31.3645 19.125 31.0943 19.125 30.8125V28.6875C19.125 28.4057 19.0131 28.1355 18.8138 27.9362C18.6145 27.7369 18.3443 27.625 18.0625 27.625H15.9375C15.6557 27.625 15.3855 27.7369 15.1862 27.9362C14.9869 28.1355 14.875 28.4057 14.875 28.6875V30.8125C14.875 31.0943 14.9869 31.3645 15.1862 31.5638C15.3855 31.7631 15.6557 31.875 15.9375 31.875ZM15.9375 28.6875H18.0625V30.8125H15.9375V28.6875ZM21.25 31.875H23.375C23.6568 31.875 23.927 31.7631 24.1263 31.5638C24.3256 31.3645 24.4375 31.0943 24.4375 30.8125V28.6875C24.4375 28.4057 24.3256 28.1355 24.1263 27.9362C23.927 27.7369 23.6568 27.625 23.375 27.625H21.25C20.9682 27.625 20.698 27.7369 20.4987 27.9362C20.2994 28.1355 20.1875 28.4057 20.1875 28.6875V30.8125C20.1875 31.0943 20.2994 31.3645 20.4987 31.5638C20.698 31.7631 20.9682 31.875 21.25 31.875ZM21.25 28.6875H23.375V30.8125H21.25V28.6875Z" fill="black"/>
<path d="M31.875 1.85938H29.4844V0.53125C29.4844 0.390354 29.4284 0.255228 29.3288 0.1556C29.2291 0.0559708 29.094 0 28.9531 0C28.8122 0 28.6771 0.0559708 28.5775 0.1556C28.4778 0.255228 28.4219 0.390354 28.4219 0.53125V4.78125C28.4219 4.99259 28.3379 5.19528 28.1885 5.34473C28.039 5.49417 27.8363 5.57812 27.625 5.57812C27.4137 5.57812 27.211 5.49417 27.0615 5.34473C26.9121 5.19528 26.8281 4.99259 26.8281 4.78125V0.53125C26.8281 0.390354 26.7722 0.255228 26.6725 0.1556C26.5729 0.0559708 26.4378 0 26.2969 0C26.156 0 26.0209 0.0559708 25.9212 0.1556C25.8216 0.255228 25.7656 0.390354 25.7656 0.53125V1.85938H18.8594V0.53125C18.8594 0.390354 18.8034 0.255228 18.7038 0.1556C18.6041 0.0559708 18.469 0 18.3281 0C18.1872 0 18.0521 0.0559708 17.9525 0.1556C17.8528 0.255228 17.7969 0.390354 17.7969 0.53125V4.78125C17.7969 4.99259 17.7129 5.19528 17.5635 5.34473C17.414 5.49417 17.2113 5.57812 17 5.57812C16.7887 5.57812 16.586 5.49417 16.4365 5.34473C16.2871 5.19528 16.2031 4.99259 16.2031 4.78125V0.53125C16.2031 0.390354 16.1472 0.255228 16.0475 0.1556C15.9479 0.0559708 15.8128 0 15.6719 0C15.531 0 15.3959 0.0559708 15.2962 0.1556C15.1966 0.255228 15.1406 0.390354 15.1406 0.53125V1.85938H8.23438V0.53125C8.23438 0.390354 8.1784 0.255228 8.07878 0.1556C7.97915 0.0559708 7.84402 0 7.70312 0C7.56223 0 7.4271 0.0559708 7.32747 0.1556C7.22785 0.255228 7.17188 0.390354 7.17188 0.53125V4.78125C7.17188 4.99259 7.08792 5.19528 6.93848 5.34473C6.78903 5.49417 6.58634 5.57812 6.375 5.57812C6.16366 5.57812 5.96097 5.49417 5.81152 5.34473C5.66208 5.19528 5.57812 4.99259 5.57812 4.78125V0.53125C5.57812 0.390354 5.52215 0.255228 5.42253 0.1556C5.3229 0.0559708 5.18777 0 5.04688 0C4.90598 0 4.77085 0.0559708 4.67122 0.1556C4.5716 0.255228 4.51562 0.390354 4.51562 0.53125V1.85938H2.125C1.56141 1.85938 1.02091 2.08326 0.622398 2.48177C0.223883 2.88029 0 3.42079 0 3.98438L0 31.875C0.00168165 32.4381 0.226105 32.9776 0.624256 33.3757C1.02241 33.7739 1.56193 33.9983 2.125 34H31.875C32.4386 34 32.9791 33.7761 33.3776 33.3776C33.7761 32.9791 34 32.4386 34 31.875V3.98438C34 3.42079 33.7761 2.88029 33.3776 2.48177C32.9791 2.08326 32.4386 1.85938 31.875 1.85938ZM26.0419 5.75158C26.2074 6.02308 26.4399 6.24746 26.7172 6.40315C26.9944 6.55885 27.307 6.64062 27.625 6.64062C27.943 6.64062 28.2556 6.55885 28.5328 6.40315C28.8101 6.24746 29.0426 6.02308 29.2081 5.75158C29.2121 5.79673 29.2188 5.84162 29.2188 5.88811C29.2188 6.3108 29.0508 6.71618 28.752 7.01506C28.4531 7.31395 28.0477 7.48186 27.625 7.48186C27.2023 7.48186 26.7969 7.31395 26.498 7.01506C26.1992 6.71618 26.0312 6.3108 26.0312 5.88811C26.0312 5.84162 26.0379 5.797 26.0419 5.75158ZM15.4169 5.75158C15.5824 6.02308 15.8149 6.24746 16.0922 6.40315C16.3694 6.55885 16.682 6.64062 17 6.64062C17.318 6.64062 17.6306 6.55885 17.9078 6.40315C18.1851 6.24746 18.4176 6.02308 18.5831 5.75158C18.5871 5.79673 18.5938 5.84162 18.5938 5.88811C18.5938 6.3108 18.4258 6.71618 18.127 7.01506C17.8281 7.31395 17.4227 7.48186 17 7.48186C16.5773 7.48186 16.1719 7.31395 15.873 7.01506C15.5742 6.71618 15.4062 6.3108 15.4062 5.88811C15.4062 5.84162 15.4129 5.797 15.4169 5.75158ZM4.79188 5.75158C4.95737 6.02308 5.18992 6.24746 5.46716 6.40315C5.74441 6.55885 6.05703 6.64062 6.375 6.64062C6.69297 6.64062 7.00559 6.55885 7.28284 6.40315C7.56008 6.24746 7.79263 6.02308 7.95812 5.75158C7.96211 5.79673 7.96875 5.84162 7.96875 5.88811C7.96875 6.3108 7.80084 6.71618 7.50195 7.01506C7.20307 7.31395 6.79769 7.48186 6.375 7.48186C5.95231 7.48186 5.54693 7.31395 5.24805 7.01506C4.94916 6.71618 4.78125 6.3108 4.78125 5.88811C4.78125 5.84162 4.78789 5.797 4.79188 5.75158ZM32.9375 31.875C32.9371 32.1567 32.8251 32.4267 32.6259 32.6259C32.4267 32.8251 32.1567 32.9371 31.875 32.9375H2.125C1.84332 32.9371 1.57327 32.8251 1.37409 32.6259C1.17491 32.4267 1.06285 32.1567 1.0625 31.875V10.625H32.9375V31.875ZM32.9375 9.5625H1.0625V3.98438C1.06285 3.70269 1.17491 3.43264 1.37409 3.23346C1.57327 3.03428 1.84332 2.92223 2.125 2.92188H4.51562V3.99686C4.13883 4.36619 3.88056 4.83937 3.77375 5.35607C3.66694 5.87276 3.71642 6.40956 3.91589 6.89802C4.11536 7.38648 4.45578 7.80447 4.89375 8.0987C5.33171 8.39292 5.84738 8.55005 6.375 8.55005C6.90262 8.55005 7.41829 8.39292 7.85625 8.0987C8.29422 7.80447 8.63464 7.38648 8.83411 6.89802C9.03358 6.40956 9.08306 5.87276 8.97625 5.35607C8.86944 4.83937 8.61117 4.36619 8.23438 3.99686V2.92188H15.1406V3.99686C14.7638 4.36619 14.5056 4.83937 14.3987 5.35607C14.2919 5.87276 14.3414 6.40956 14.5409 6.89802C14.7404 7.38648 15.0808 7.80447 15.5187 8.0987C15.9567 8.39292 16.4724 8.55005 17 8.55005C17.5276 8.55005 18.0433 8.39292 18.4812 8.0987C18.9192 7.80447 19.2596 7.38648 19.4591 6.89802C19.6586 6.40956 19.7081 5.87276 19.6013 5.35607C19.4944 4.83937 19.2362 4.36619 18.8594 3.99686V2.92188H25.7656V3.99686C25.3888 4.36619 25.1306 4.83937 25.0237 5.35607C24.9169 5.87276 24.9664 6.40956 25.1659 6.89802C25.3654 7.38648 25.7058 7.80447 26.1438 8.0987C26.5817 8.39292 27.0974 8.55005 27.625 8.55005C28.1526 8.55005 28.6683 8.39292 29.1062 8.0987C29.5442 7.80447 29.8846 7.38648 30.0841 6.89802C30.2836 6.40956 30.3331 5.87276 30.2263 5.35607C30.1194 4.83937 29.8612 4.36619 29.4844 3.99686V2.92188H31.875C32.1567 2.92223 32.4267 3.03428 32.6259 3.23346C32.8251 3.43264 32.9371 3.70269 32.9375 3.98438V9.5625Z" fill="black"/>
</g>
<defs>
<clipPath id="clip0_20_364">
<rect width="34" height="34" fill="white"/>
</clipPath>
</defs>
</svg>
