<svg width="25" height="25" viewBox="0 0 25 25" fill="none" xmlns="http://www.w3.org/2000/svg">
<path d="M12.9001 2.26066L12.5119 2.68906L12.1236 2.25945C10.7825 0.802532 8.97574 -0.00947205 7.09635 8.33883e-05C5.21696 0.00963883 3.41701 0.839981 2.08807 2.31047C0.759125 3.78096 0.00871101 5.77263 7.53614e-05 7.85219C-0.00856028 9.93176 0.725281 11.931 2.04195 13.4149L2.43022 13.8445L12.5119 25L22.5935 13.8445L22.9818 13.4149C24.288 11.9287 25.0129 9.93317 24.9998 7.86007C24.9867 5.78697 24.2366 3.80292 22.9117 2.33706C21.5868 0.871196 19.7936 0.0413725 17.9201 0.0270759C16.0465 0.0127794 14.2432 0.815159 12.9001 2.26066Z" fill="#FF0000"/>
</svg>
