<svg width="87" height="87" viewBox="0 0 87 87" fill="none" xmlns="http://www.w3.org/2000/svg">
<path d="M43.5 0C19.4741 0 0 19.4741 0 43.5C0 67.5259 19.4741 87 43.5 87C67.5259 87 87 67.5259 87 43.5C87 19.4741 67.5259 0 43.5 0ZM66.12 46.98H46.98V66.12C46.98 67.0429 46.6133 67.9281 45.9607 68.5807C45.3081 69.2333 44.4229 69.6 43.5 69.6C42.577 69.6 41.6919 69.2333 41.0393 68.5807C40.3866 67.9281 40.02 67.0429 40.02 66.12V46.98H20.88C19.957 46.98 19.0719 46.6133 18.4193 45.9607C17.7666 45.3081 17.4 44.4229 17.4 43.5C17.4 42.577 17.7666 41.6919 18.4193 41.0393C19.0719 40.3866 19.957 40.02 20.88 40.02H40.02V20.88C40.02 19.957 40.3866 19.0719 41.0393 18.4193C41.6919 17.7666 42.577 17.4 43.5 17.4C44.4229 17.4 45.3081 17.7666 45.9607 18.4193C46.6133 19.0719 46.98 19.957 46.98 20.88V40.02H66.12C67.0429 40.02 67.9281 40.3866 68.5807 41.0393C69.2333 41.6919 69.6 42.577 69.6 43.5C69.6 44.4229 69.2333 45.3081 68.5807 45.9607C67.9281 46.6133 67.0429 46.98 66.12 46.98Z" fill="#CD4F4F"/>
</svg>
