<svg width="20" height="20" viewBox="0 0 20 20" fill="none" xmlns="http://www.w3.org/2000/svg">
<path d="M19.9665 7.56543C19.9034 7.37414 19.7887 7.20612 19.6362 7.08175C19.4838 6.95738 19.3002 6.882 19.1076 6.86475L13.4254 5.99673L10.8788 0.589946C10.797 0.413132 10.6694 0.264014 10.5104 0.159676C10.3515 0.0553385 10.1676 0 9.98005 0C9.79244 0 9.60864 0.0553385 9.44968 0.159676C9.29072 0.264014 9.16304 0.413132 9.08127 0.589946L6.53474 5.98627L0.852469 6.86475C0.667643 6.89226 0.493882 6.97347 0.350902 7.09917C0.207923 7.22487 0.101452 7.39002 0.0435705 7.57589C-0.00941244 7.75752 -0.014167 7.95083 0.0298169 8.13507C0.0738009 8.31932 0.164863 8.48754 0.293231 8.62169L4.41762 12.8049L3.41898 18.745C3.38333 18.9411 3.40199 19.1438 3.47277 19.3291C3.54356 19.5144 3.6635 19.6746 3.81843 19.7908C3.96944 19.9039 4.14756 19.9706 4.33278 19.9836C4.518 19.9965 4.703 19.9551 4.86701 19.864L9.98005 17.0718L15.0731 19.8745C15.2133 19.9573 15.3716 20.0005 15.5325 20C15.744 20.0008 15.9503 19.9312 16.1217 19.8013C16.2766 19.6851 16.3966 19.5248 16.4673 19.3395C16.5381 19.1542 16.5568 18.9516 16.5211 18.7555L15.5225 12.8153L19.6469 8.63215C19.7911 8.50422 19.8976 8.33609 19.9542 8.14726C20.0108 7.95844 20.015 7.75668 19.9665 7.56543ZM13.8248 11.7486C13.7077 11.8673 13.6201 12.0141 13.5696 12.1763C13.5191 12.3386 13.5073 12.5113 13.5352 12.6794L14.2542 17.0613L10.4993 14.9697C10.3549 14.8891 10.1937 14.847 10.03 14.847C9.86629 14.847 9.7051 14.8891 9.56062 14.9697L5.80573 17.0613L6.52475 12.6794C6.55265 12.5113 6.54084 12.3386 6.49036 12.1763C6.43988 12.0141 6.35226 11.8673 6.23514 11.7486L3.23922 8.61123L7.4435 7.97329C7.60528 7.94973 7.75907 7.88497 7.89139 7.78469C8.02371 7.68441 8.13052 7.55167 8.20247 7.3981L9.98005 3.41361L11.8575 7.40856C11.9294 7.56213 12.0362 7.69486 12.1686 7.79514C12.3009 7.89542 12.4547 7.96019 12.6165 7.98375L16.8207 8.62169L13.8248 11.7486Z" fill="#FF0000"/>
</svg>
