<svg width="19" height="13" viewBox="0 0 19 13" fill="none" xmlns="http://www.w3.org/2000/svg">
<path d="M9.5 0C5.18182 0 1.49409 2.69533 0 6.5C1.49409 10.3047 5.18182 13 9.5 13C13.8225 13 17.5059 10.3047 19 6.5C17.5059 2.69533 13.8225 0 9.5 0ZM9.5 10.8333C7.11636 10.8333 5.18182 8.892 5.18182 6.5C5.18182 4.108 7.11636 2.16667 9.5 2.16667C11.8836 2.16667 13.8182 4.108 13.8182 6.5C13.8182 8.892 11.8836 10.8333 9.5 10.8333ZM9.5 3.9C8.07068 3.9 6.90909 5.06567 6.90909 6.5C6.90909 7.93433 8.07068 9.1 9.5 9.1C10.9293 9.1 12.0909 7.93433 12.0909 6.5C12.0909 5.06567 10.9293 3.9 9.5 3.9Z" fill="black"/>
</svg>
