<svg width="393" height="613" viewBox="0 0 393 613" fill="none" xmlns="http://www.w3.org/2000/svg">
<g filter="url(#filter0_i_20_111)">
<path d="M0 75C0 51.7029 0 40.0544 3.80602 30.8658C8.88072 18.6144 18.6144 8.88072 30.8658 3.80602C40.0544 0 51.7029 0 75 0H318C341.297 0 352.946 0 362.134 3.80602C374.386 8.88072 384.119 18.6144 389.194 30.8658C393 40.0544 393 51.7029 393 75V536.36C393 560.115 393 571.993 389.09 581.291C383.876 593.687 373.889 603.461 361.382 608.405C352.003 612.113 340.128 611.856 316.378 611.343L73.3783 606.087C50.5367 605.593 39.1159 605.346 30.1192 601.447C18.1235 596.249 8.64093 586.559 3.70325 574.454C0 565.375 0 553.951 0 531.105V75Z" fill="#FC0808" fill-opacity="0.3"/>
</g>
<defs>
<filter id="filter0_i_20_111" x="0" y="0" width="393" height="615.636" filterUnits="userSpaceOnUse" color-interpolation-filters="sRGB">
<feFlood flood-opacity="0" result="BackgroundImageFix"/>
<feBlend mode="normal" in="SourceGraphic" in2="BackgroundImageFix" result="shape"/>
<feColorMatrix in="SourceAlpha" type="matrix" values="0 0 0 0 0 0 0 0 0 0 0 0 0 0 0 0 0 0 127 0" result="hardAlpha"/>
<feOffset dy="4"/>
<feGaussianBlur stdDeviation="2"/>
<feComposite in2="hardAlpha" operator="arithmetic" k2="-1" k3="1"/>
<feColorMatrix type="matrix" values="0 0 0 0 0 0 0 0 0 0 0 0 0 0 0 0 0 0 0.25 0"/>
<feBlend mode="normal" in2="shape" result="effect1_innerShadow_20_111"/>
</filter>
</defs>
</svg>
