<svg width="84" height="70" viewBox="0 0 84 70" fill="none" xmlns="http://www.w3.org/2000/svg">
<mask id="mask0_20_474" style="mask-type:luminance" maskUnits="userSpaceOnUse" x="-3" y="-8" width="90" height="90">
<path d="M-2.34737 -7.01487H86.3337V81.6662H-2.34737V-7.01487Z" fill="white"/>
</mask>
<g mask="url(#mask0_20_474)">
<path d="M62.9966 13.9885C61.4035 13.9892 59.8192 14.2235 58.2942 14.684C58.3058 14.4506 58.3292 14.2242 58.3292 13.9885C58.327 10.5985 57.0946 7.32442 54.8608 4.77438C52.627 2.22432 49.5437 0.571589 46.1835 0.12308C42.8232 -0.325429 39.4144 0.46078 36.59 2.33569C33.7656 4.21061 31.7176 7.04681 30.8264 10.3176C29.1822 9.66019 27.4279 9.32199 25.6572 9.32111C23.8184 9.32111 21.9976 9.68329 20.2988 10.387C18.5999 11.0906 17.0563 12.122 15.7561 13.4223C14.4559 14.7225 13.4245 16.2661 12.7208 17.9649C12.0171 19.6638 11.6549 21.4846 11.6549 23.3234C11.6549 25.1622 12.0171 26.983 12.7208 28.6818C13.4245 30.3807 14.4559 31.9243 15.7561 33.2245C17.0563 34.5247 18.5999 35.5561 20.2988 36.2598C21.9976 36.9635 23.8184 37.3257 25.6572 37.3257C28.7297 37.3237 31.7162 36.3108 34.1561 34.4433C36.5959 32.5758 38.3535 29.9574 39.1577 26.992C40.8017 27.6501 42.5561 27.9891 44.3269 27.9908C45.202 27.9908 46.0539 27.8998 46.8847 27.7481C46.7412 28.5995 46.6663 29.4611 46.6606 30.3245C46.6606 39.3443 53.9768 46.6605 62.9966 46.6605C72.0164 46.6605 79.3326 39.3443 79.3326 30.3245C79.3326 25.9919 77.6115 21.8368 74.5479 18.7732C71.4843 15.7096 67.3292 13.9885 62.9966 13.9885Z" fill="#FF414C" fill-opacity="0.24"/>
<path d="M72.3314 46.6605C71.273 46.6761 70.2217 46.8363 69.2066 47.1366C69.7107 45.909 69.9977 44.5695 69.9977 43.1599C69.9977 40.3747 68.8913 37.7036 66.9219 35.7341C64.9524 33.7647 62.2813 32.6582 59.496 32.6582C57.2162 32.6648 55.0016 33.42 53.1927 34.8076C52.3728 31.5288 50.4811 28.618 47.8178 26.5373C45.1545 24.4566 41.8723 23.3254 38.4926 23.3234C35.3477 23.325 32.2811 24.3046 29.7176 26.1264C27.1541 27.9481 25.2205 30.522 24.1846 33.4914C21.6176 32.6977 18.9095 32.4674 16.2453 32.8163C13.5812 33.1652 11.0237 34.0851 8.74765 35.513C6.47159 36.941 4.53057 38.8435 3.05719 41.0904C1.58382 43.3373 0.612802 45.8758 0.210478 48.5324C-0.191846 51.1891 -0.0159976 53.9012 0.726011 56.4837C1.46802 59.0661 2.7587 61.458 4.50989 63.4958C6.26108 65.5337 8.43151 67.1695 10.8729 68.2916C13.3143 69.4138 15.9691 69.9957 18.6561 69.9976H72.3314C75.4261 69.9976 78.3941 68.7683 80.5824 66.58C82.7706 64.3917 84 61.4238 84 58.3291C84 55.2344 82.7706 52.2664 80.5824 50.0781C78.3941 47.8899 75.4261 46.6605 72.3314 46.6605Z" fill="#C74848"/>
</g>
</svg>
