<svg width="20" height="20" viewBox="0 0 20 20" fill="none" xmlns="http://www.w3.org/2000/svg">
<path d="M19.7072 9.21443L11.7071 0.325327C11.5673 0.169979 11.3891 0.0641916 11.1952 0.0213377C11.0012 -0.0215162 10.8002 0.00048773 10.6175 0.0845676C10.4348 0.168647 10.2786 0.311028 10.1687 0.49371C10.0588 0.676392 10.0001 0.891173 10.0001 1.1109V5.04988C7.26837 5.33077 4.72928 6.73421 2.87972 8.98556C1.03016 11.2369 0.00327177 14.1741 0 17.2224V18.8891C0.000157857 19.1198 0.0649104 19.3446 0.185276 19.5325C0.305642 19.7205 0.475654 19.8621 0.671733 19.9378C0.867811 20.0135 1.08024 20.0196 1.27954 19.9551C1.47885 19.8906 1.65516 19.7588 1.78402 19.578C2.76373 18.2835 3.9658 17.2189 5.32 16.4464C6.6742 15.6739 8.15338 15.2091 9.6711 15.079C9.7211 15.0723 9.84611 15.0612 10.0001 15.0501V18.8891C10.0001 19.1088 10.0588 19.3236 10.1687 19.5063C10.2786 19.689 10.4348 19.8314 10.6175 19.9154C10.8002 19.9995 11.0012 20.0215 11.1952 19.9787C11.3891 19.9358 11.5673 19.83 11.7071 19.6747L19.7072 10.7856C19.8947 10.5772 20 10.2946 20 10C20 9.70537 19.8947 9.4228 19.7072 9.21443ZM12.0001 16.2068V13.889C12.0001 13.5943 11.8948 13.3117 11.7072 13.1033C11.5197 12.8949 11.2653 12.7778 11.0001 12.7778C10.7451 12.7778 9.7041 12.8334 9.4381 12.8723C6.74293 13.1482 4.17746 14.286 2.05202 16.1479C2.29327 13.6972 3.33958 11.4315 4.99061 9.78462C6.64164 8.1377 8.78137 7.22532 11.0001 7.22216C11.2653 7.22216 11.5197 7.10509 11.7072 6.89671C11.8948 6.68833 12.0001 6.40571 12.0001 6.11102V3.79319L17.5862 10L12.0001 16.2068Z" fill="#FF0000"/>
</svg>
