<svg width="73" height="73" viewBox="0 0 73 73" fill="none" xmlns="http://www.w3.org/2000/svg">
<circle cx="37" cy="37" r="30" fill="#FF0000"/>
<path d="M36.5 6.08331C30.4841 6.08331 24.6034 7.86722 19.6014 11.2094C14.5994 14.5517 10.7008 19.3021 8.39866 24.86C6.09649 30.4179 5.49414 36.5337 6.66777 42.434C7.84141 48.3342 10.7383 53.754 14.9922 58.0078C19.246 62.2617 24.6657 65.1586 30.566 66.3322C36.4663 67.5058 42.582 66.9035 48.1399 64.6013C53.6979 62.2992 58.4483 58.4006 61.7905 53.3986C65.1328 48.3966 66.9167 42.5158 66.9167 36.5C66.9167 32.5056 66.1299 28.5503 64.6013 24.86C63.0728 21.1697 60.8323 17.8166 58.0078 14.9921C55.1834 12.1677 51.8303 9.92722 48.1399 8.39864C44.4496 6.87006 40.4944 6.08331 36.5 6.08331ZM36.5 60.8333C31.6873 60.8333 26.9827 59.4062 22.9811 56.7324C18.9795 54.0586 15.8607 50.2583 14.0189 45.8119C12.1772 41.3656 11.6953 36.473 12.6342 31.7528C13.5731 27.0326 15.8907 22.6968 19.2937 19.2937C22.6968 15.8906 27.0326 13.5731 31.7528 12.6342C36.473 11.6953 41.3656 12.1772 45.812 14.0189C50.2583 15.8606 54.0586 18.9795 56.7324 22.9811C59.4062 26.9827 60.8333 31.6873 60.8333 36.5C60.8333 42.9536 58.2696 49.1429 53.7063 53.7062C49.1429 58.2696 42.9536 60.8333 36.5 60.8333ZM48.6667 33.4583H39.5417V24.3333C39.5417 23.5266 39.2212 22.753 38.6508 22.1825C38.0804 21.6121 37.3067 21.2916 36.5 21.2916C35.6933 21.2916 34.9196 21.6121 34.3492 22.1825C33.7788 22.753 33.4583 23.5266 33.4583 24.3333V33.4583H24.3333C23.5266 33.4583 22.753 33.7788 22.1825 34.3492C21.6121 34.9196 21.2917 35.6933 21.2917 36.5C21.2917 37.3067 21.6121 38.0803 22.1825 38.6508C22.753 39.2212 23.5266 39.5416 24.3333 39.5416H33.4583V48.6666C33.4583 49.4733 33.7788 50.247 34.3492 50.8174C34.9196 51.3879 35.6933 51.7083 36.5 51.7083C37.3067 51.7083 38.0804 51.3879 38.6508 50.8174C39.2212 50.247 39.5417 49.4733 39.5417 48.6666V39.5416H48.6667C49.4734 39.5416 50.247 39.2212 50.8174 38.6508C51.3879 38.0803 51.7083 37.3067 51.7083 36.5C51.7083 35.6933 51.3879 34.9196 50.8174 34.3492C50.247 33.7788 49.4734 33.4583 48.6667 33.4583Z" fill="white"/>
</svg>
