<svg width="73" height="73" viewBox="0 0 73 73" fill="none" xmlns="http://www.w3.org/2000/svg">
<circle cx="36.96" cy="38.1597" r="30" fill="#FF0000"/>
<path d="M36.5 67.9655C19.1487 67.9655 5.03448 53.8513 5.03448 36.5C5.03448 19.1487 19.1487 5.03448 36.5 5.03448C53.8513 5.03448 67.9655 19.1487 67.9655 36.5C67.9655 53.8513 53.8513 67.9655 36.5 67.9655ZM36.5 10.069C21.9252 10.069 10.069 21.9252 10.069 36.5C10.069 51.0748 21.9252 62.931 36.5 62.931C51.0748 62.931 62.931 51.0748 62.931 36.5C62.931 21.9252 51.0748 10.069 36.5 10.069Z" fill="#FEFBFB"/>
<path d="M36.5 41.5345C39.2805 41.5345 41.5345 39.2805 41.5345 36.5C41.5345 33.7195 39.2805 31.4655 36.5 31.4655C33.7195 31.4655 31.4655 33.7195 31.4655 36.5C31.4655 39.2805 33.7195 41.5345 36.5 41.5345Z" fill="#FEFBFB"/>
<path d="M21.3965 41.5345C24.177 41.5345 26.431 39.2805 26.431 36.5C26.431 33.7195 24.177 31.4655 21.3965 31.4655C18.6161 31.4655 16.3621 33.7195 16.3621 36.5C16.3621 39.2805 18.6161 41.5345 21.3965 41.5345Z" fill="#FEFBFB"/>
<path d="M51.6035 41.5345C54.3839 41.5345 56.6379 39.2805 56.6379 36.5C56.6379 33.7195 54.3839 31.4655 51.6035 31.4655C48.823 31.4655 46.569 33.7195 46.569 36.5C46.569 39.2805 48.823 41.5345 51.6035 41.5345Z" fill="#FEFBFB"/>
</svg>
